<mxfile host="app.diagrams.net" modified="2023-05-14T07:32:31.026Z" agent="Mozilla/5.0 (Windows NT 10.0; Win64; x64) AppleWebKit/537.36 (KHTML, like Gecko) Chrome/115.0.0.0 Safari/537.36 Edg/115.0.0.0" etag="ng5C9k4937PwzSgzy4iB" version="21.2.9" type="github">
  <diagram name="第 1 页" id="S6Jak_HYQyeMZW4X6Wfz">
    <mxGraphModel dx="1081" dy="748" grid="1" gridSize="10" guides="1" tooltips="1" connect="1" arrows="1" fold="1" page="1" pageScale="1" pageWidth="827" pageHeight="1169" math="0" shadow="0">
      <root>
        <mxCell id="0" />
        <mxCell id="1" parent="0" />
        <mxCell id="OQ7InEq07p2cIE-FzZFH-1" style="rounded=0;orthogonalLoop=1;jettySize=auto;html=1;endArrow=none;endFill=0;fillColor=#ffe6cc;strokeColor=#d79b00;strokeWidth=3;" edge="1" parent="1" source="OQ7InEq07p2cIE-FzZFH-7" target="OQ7InEq07p2cIE-FzZFH-8">
          <mxGeometry relative="1" as="geometry" />
        </mxCell>
        <mxCell id="OQ7InEq07p2cIE-FzZFH-2" style="edgeStyle=none;shape=connector;rounded=0;orthogonalLoop=1;jettySize=auto;html=1;entryX=0;entryY=0.625;entryDx=0;entryDy=0;entryPerimeter=0;labelBackgroundColor=default;strokeColor=#d79b00;strokeWidth=3;fontFamily=Helvetica;fontSize=11;fontColor=default;endArrow=none;endFill=0;fillColor=#ffe6cc;" edge="1" parent="1" source="OQ7InEq07p2cIE-FzZFH-7" target="OQ7InEq07p2cIE-FzZFH-16">
          <mxGeometry relative="1" as="geometry" />
        </mxCell>
        <mxCell id="OQ7InEq07p2cIE-FzZFH-3" style="edgeStyle=none;shape=connector;rounded=0;orthogonalLoop=1;jettySize=auto;html=1;labelBackgroundColor=default;strokeColor=#d79b00;strokeWidth=3;fontFamily=Helvetica;fontSize=11;fontColor=default;endArrow=none;endFill=0;fillColor=#ffe6cc;" edge="1" parent="1" source="OQ7InEq07p2cIE-FzZFH-7" target="OQ7InEq07p2cIE-FzZFH-15">
          <mxGeometry relative="1" as="geometry" />
        </mxCell>
        <mxCell id="OQ7InEq07p2cIE-FzZFH-4" style="edgeStyle=none;shape=connector;rounded=0;orthogonalLoop=1;jettySize=auto;html=1;labelBackgroundColor=default;strokeColor=#d79b00;strokeWidth=3;fontFamily=Helvetica;fontSize=11;fontColor=default;endArrow=none;endFill=0;fillColor=#ffe6cc;" edge="1" parent="1" source="OQ7InEq07p2cIE-FzZFH-7" target="OQ7InEq07p2cIE-FzZFH-17">
          <mxGeometry relative="1" as="geometry" />
        </mxCell>
        <mxCell id="OQ7InEq07p2cIE-FzZFH-5" style="edgeStyle=none;shape=connector;rounded=0;orthogonalLoop=1;jettySize=auto;html=1;labelBackgroundColor=default;strokeColor=#d79b00;strokeWidth=3;fontFamily=Helvetica;fontSize=11;fontColor=default;endArrow=none;endFill=0;fillColor=#ffe6cc;" edge="1" parent="1" source="OQ7InEq07p2cIE-FzZFH-7" target="OQ7InEq07p2cIE-FzZFH-18">
          <mxGeometry relative="1" as="geometry" />
        </mxCell>
        <mxCell id="OQ7InEq07p2cIE-FzZFH-7" value="评教信息" style="rounded=0;whiteSpace=wrap;html=1;fillColor=#e1d5e7;strokeColor=#9673a6;fontFamily=Times New Roman;fontStyle=1;fontSize=17;" vertex="1" parent="1">
          <mxGeometry x="354" y="290" width="120" height="60" as="geometry" />
        </mxCell>
        <mxCell id="OQ7InEq07p2cIE-FzZFH-8" value="教师工号" style="ellipse;whiteSpace=wrap;html=1;fillColor=#e1d5e7;strokeColor=#9673a6;fontSize=21;" vertex="1" parent="1">
          <mxGeometry x="110" y="370" width="120" height="80" as="geometry" />
        </mxCell>
        <mxCell id="OQ7InEq07p2cIE-FzZFH-9" style="rounded=0;orthogonalLoop=1;jettySize=auto;html=1;endArrow=none;endFill=0;fillColor=#ffe6cc;strokeColor=#d79b00;strokeWidth=3;" edge="1" parent="1" source="OQ7InEq07p2cIE-FzZFH-7" target="OQ7InEq07p2cIE-FzZFH-10">
          <mxGeometry relative="1" as="geometry">
            <mxPoint x="344" y="270" as="sourcePoint" />
          </mxGeometry>
        </mxCell>
        <mxCell id="OQ7InEq07p2cIE-FzZFH-10" value="教师姓名" style="ellipse;whiteSpace=wrap;html=1;fillColor=#e1d5e7;strokeColor=#9673a6;fontSize=21;" vertex="1" parent="1">
          <mxGeometry x="90" y="220" width="120" height="80" as="geometry" />
        </mxCell>
        <mxCell id="OQ7InEq07p2cIE-FzZFH-11" style="rounded=0;orthogonalLoop=1;jettySize=auto;html=1;endArrow=none;endFill=0;fillColor=#ffe6cc;strokeColor=#d79b00;strokeWidth=3;" edge="1" parent="1" source="OQ7InEq07p2cIE-FzZFH-7" target="OQ7InEq07p2cIE-FzZFH-12">
          <mxGeometry relative="1" as="geometry">
            <mxPoint x="534" y="210" as="sourcePoint" />
          </mxGeometry>
        </mxCell>
        <mxCell id="OQ7InEq07p2cIE-FzZFH-12" value="评价标题" style="ellipse;whiteSpace=wrap;html=1;fillColor=#e1d5e7;strokeColor=#9673a6;fontSize=21;" vertex="1" parent="1">
          <mxGeometry x="310" y="100" width="120" height="80" as="geometry" />
        </mxCell>
        <mxCell id="OQ7InEq07p2cIE-FzZFH-13" style="edgeStyle=none;shape=connector;rounded=0;orthogonalLoop=1;jettySize=auto;html=1;labelBackgroundColor=default;strokeColor=#d79b00;strokeWidth=3;fontFamily=Helvetica;fontSize=11;fontColor=default;endArrow=none;endFill=0;fillColor=#ffe6cc;" edge="1" parent="1" source="OQ7InEq07p2cIE-FzZFH-14" target="OQ7InEq07p2cIE-FzZFH-7">
          <mxGeometry relative="1" as="geometry" />
        </mxCell>
        <mxCell id="OQ7InEq07p2cIE-FzZFH-14" value="照片" style="ellipse;whiteSpace=wrap;html=1;fillColor=#e1d5e7;strokeColor=#9673a6;fontSize=21;" vertex="1" parent="1">
          <mxGeometry x="170" y="130" width="120" height="80" as="geometry" />
        </mxCell>
        <mxCell id="OQ7InEq07p2cIE-FzZFH-15" value="评价内容" style="ellipse;whiteSpace=wrap;html=1;fillColor=#e1d5e7;strokeColor=#9673a6;fontSize=21;" vertex="1" parent="1">
          <mxGeometry x="610" y="170" width="120" height="80" as="geometry" />
        </mxCell>
        <mxCell id="OQ7InEq07p2cIE-FzZFH-16" value="评分" style="ellipse;whiteSpace=wrap;html=1;fillColor=#e1d5e7;strokeColor=#9673a6;fontSize=21;" vertex="1" parent="1">
          <mxGeometry x="480" y="110" width="120" height="80" as="geometry" />
        </mxCell>
        <mxCell id="OQ7InEq07p2cIE-FzZFH-17" value="学号" style="ellipse;whiteSpace=wrap;html=1;fillColor=#e1d5e7;strokeColor=#9673a6;fontSize=21;" vertex="1" parent="1">
          <mxGeometry x="620" y="280" width="120" height="80" as="geometry" />
        </mxCell>
        <mxCell id="OQ7InEq07p2cIE-FzZFH-18" value="学生姓名" style="ellipse;whiteSpace=wrap;html=1;fillColor=#e1d5e7;strokeColor=#9673a6;fontSize=21;" vertex="1" parent="1">
          <mxGeometry x="620" y="400" width="120" height="80" as="geometry" />
        </mxCell>
      </root>
    </mxGraphModel>
  </diagram>
</mxfile>
